HIERARCHY
ROOT pelvis
{
  OFFSET 0 100 0
  CHANNELS 6 Xposition Yposition Zposition Zrotation Xrotation Yrotation
  JOINT pelvis_right_femur
  {
    OFFSET -10.78128 -3.44521 -0.5502486
    CHANNELS 3 Zrotation Xrotation Yrotation
    JOINT right_femur_tibia
    {
      OFFSET -0.8047443 -44.0398 -0.1307829
      CHANNELS 3 Zrotation Xrotation Yrotation
      JOINT right_tibia_foot
      {
        OFFSET 3.006224 -47.83518 -5
        CHANNELS 3 Zrotation Xrotation Yrotation
        End Site
        {
          OFFSET 0 -5 15
        }
      }
    }
  }
  JOINT pelvis_left_femur
  {
    OFFSET 10.78128 -3.44521 -0.5502486
    CHANNELS 3 Zrotation Xrotation Yrotation
    JOINT left_femur_tibia
    {
      OFFSET 0.8047443 -44.0398 -0.1307829
      CHANNELS 3 Zrotation Xrotation Yrotation
      JOINT left_tibia_foot
      {
        OFFSET -4.370144 -48.10324 -4.275266
        CHANNELS 3 Zrotation Xrotation Yrotation
        End Site
        {
          OFFSET 0 -5 15
        }
      }
    }
  }
  JOINT pelvis_spine1
  {
    OFFSET 0 6.468898 -3.129235
    CHANNELS 3 Zrotation Xrotation Yrotation
    JOINT spine1
    {
      OFFSET 0 23.15396 4.99043
      CHANNELS 3 Zrotation Xrotation Yrotation
      JOINT spine2
      {
        OFFSET 0 20.79997 -5.064912
        CHANNELS 3 Zrotation Xrotation Yrotation
        JOINT neck
        {
          OFFSET 0 14.38658 9.616178
          CHANNELS 3 Zrotation Xrotation Yrotation
          End Site
          {
            OFFSET 0 20 0
          }
        }
      }
      JOINT right_manubrium
      {
        OFFSET -5.722621 16.35077 3.967754
        CHANNELS 3 Zrotation Xrotation Yrotation
        JOINT right_clavicle
        {
          OFFSET -13.16364 1.694482 -4.693211
          CHANNELS 3 Zrotation Xrotation Yrotation
          JOINT right_humerus
          {
            OFFSET -28.5034 -0.3100689 -2.792744
            CHANNELS 3 Zrotation Xrotation Yrotation
            JOINT right_radius
            {
              OFFSET -25.15693 0.02248979 -1.271978
              CHANNELS 3 Zrotation Xrotation Yrotation
              End Site
              {
                OFFSET -15 0 0
              }
            }
          }
        }
      }
      JOINT left_manubrium
      {
        OFFSET 5.722621 16.35077 3.967754
        CHANNELS 3 Zrotation Xrotation Yrotation
        JOINT left_clavicle
        {
          OFFSET 13.16364 1.694482 -4.693211
          CHANNELS 3 Zrotation Xrotation Yrotation
          JOINT left_humerus
          {
            OFFSET 29.39168 -1.063119 -2.237045
            CHANNELS 3 Zrotation Xrotation Yrotation
            JOINT left_radius
            {
              OFFSET 24.59957 -0.9528479 0.9047498
              CHANNELS 3 Zrotation Xrotation Yrotation
              End Site
              {
                OFFSET 15 -0 -0
              }
            }
          }
        }
      }
    }
  }
}
MOTION
Frames: 7
Frame Time: 0.0416666666667
0 103.5113 0 0.7261238 -1.892532 0.8159447 0.9965255 -21.76017 2.606146 -0 34.74379 -0 -4.411562 -4.744363 -3.485984 -6.088301 12.43676 -17.11964 0 -5.412722 0 2.490897 -21.83426 19.80601 -3.522524 -1.447576 2.713581 1.537629 8.758715 -7.370745 1.299135 22.01084 7.381709 3.239163 -21.73003 8.914031 3.861066 -18.19612 10.50592 86.9241 30.99699 -17.94623 -0 0 14.14052 -15.18455 10.15962 8.795442 6.447845 -20.06917 -3.395864 -89.4145 26.63691 16.71063 0 0 -18.64608 3.64188 14.79454 9.311152
0.5793306 102.4375 3.710448 0.761863 -1.828887 1.620809 0.9338087 -21.73835 2.59778 -0 34.96908 -0 -4.449348 -4.801475 -3.418831 -6.109809 12.39848 -17.25267 0 -6.275678 0 2.674032 -21.94918 19.96227 -3.561702 -1.478438 2.713374 1.532926 8.747952 -7.363682 1.288146 22.00095 7.399544 3.247414 -21.78194 8.933447 3.868109 -18.29727 10.50316 86.85304 31.03998 -17.84291 -0 0 14.28705 -15.15086 10.10107 8.825838 6.461797 -20.04534 -3.381721 -89.52042 26.66235 16.88769 0 0 -18.52954 3.661691 14.85786 9.286665
1.05438 101.2653 7.344032 0.4442697 -1.203482 2.259636 1.851024 -24.22311 2.617071 -0 29.44546 -0 -5.224857 -5.869447 -3.399683 -5.693184 13.55855 -17.10771 0 -4.045267 0 2.521485 -22.09363 19.38551 -3.225322 -1.5711 2.660456 1.918203 8.790385 -7.813104 1.208369 21.79911 7.331674 3.294119 -22.29827 8.793747 3.81308 -18.21125 10.61658 87.48317 31.2217 -19.2946 -0 0 13.61275 -14.23776 10.15693 8.136481 6.731367 -20.88158 -3.379642 -89.2695 26.61396 16.3102 0 0 -20.22886 4.224308 15.22626 8.599266
1.438695 99.92424 10.84657 0.1461238 -0.5932773 2.779898 2.621218 -26.45412 2.580755 -0 24.55083 -0 -6.087516 -6.844745 -3.258289 -5.323963 14.56806 -17.12793 0 -3.183938 0 2.70201 -22.34742 19.07668 -2.953593 -1.718344 2.608206 2.262431 8.857599 -8.220375 1.113374 21.60266 7.281998 3.352581 -22.85053 8.670422 3.721636 -18.31696 10.72835 88.0332 31.33568 -20.50971 -0 0 13.17755 -13.39604 10.09593 7.555924 7.013229 -21.67978 -3.393903 -89.18188 26.47312 16.03697 0 0 -21.60946 4.922815 15.69344 7.730769
1.728621 98.48115 14.30347 -0.1049354 -0.2071992 3.189532 3.320138 -28.21315 2.576777 -0 20.40114 -0 -6.727318 -7.49931 -3.2414 -5.007302 15.40857 -16.95087 0 -1.282407 0 2.595861 -22.37041 18.61379 -2.682962 -1.793227 2.567268 2.536094 8.933809 -8.54804 1.053654 21.46503 7.215303 3.386373 -23.20653 8.541812 3.628795 -18.26488 10.82172 88.57967 31.32795 -21.60486 -0 0 12.62607 -12.79988 10.12136 7.062923 7.215535 -22.34794 -3.431767 -88.96505 26.29498 15.57624 0 0 -22.84302 5.474431 15.97052 7.043207
1.930836 96.9899 17.77706 -0.3078149 -0.001961459 3.498417 3.919171 -29.57319 2.542647 -0 16.95971 -0 -7.243694 -7.845452 -3.271933 -4.744678 16.11655 -16.6527 -0 1.083529 -0 2.373399 -22.24056 18.09773 -2.425704 -1.831183 2.528909 2.74561 9.036027 -8.808317 1.015475 21.37522 7.138717 3.40648 -23.4226 8.408599 3.513261 -18.14353 10.90291 89.11981 31.18543 -22.56272 -0 0 12.02567 -12.41761 10.18249 6.661868 7.363473 -22.92704 -3.506207 -88.68167 26.03007 15.03518 0 0 -23.89055 5.986406 16.14176 6.39563
2.05268 95.52204 21.35507 -0.4467487 -0.01934766 3.71749 4.414602 -30.45193 2.505251 -0 14.37135 -0 -7.537359 -7.843356 -3.403994 -4.550073 16.66696 -16.17061 -0 4.352637 -0 1.900581 -21.89303 17.45686 -2.178885 -1.800563 2.497244 2.879419 9.149551 -8.984874 1.01185 21.34628 7.049306 3.404167 -23.44272 8.274222 3.395659 -17.87446 10.96437 89.63868 30.92301 -23.37348 -0 0 11.32344 -12.28687 10.32744 6.356963 7.430115 -23.36853 -3.610111 -88.28354 25.72092 14.32655 0 0 -24.76201 6.349853 16.1365 5.926669
